<mxfile host="app.diagrams.net" modified="2023-07-05T07:01:24.429Z" agent="Mozilla/5.0 (Macintosh; Intel Mac OS X 10_15_7) AppleWebKit/537.36 (KHTML, like Gecko) Chrome/114.0.0.0 Safari/537.36" etag="qQ7PCxVMqu3gGlqFX5W8" version="21.5.0" type="github">
  <diagram id="prtHgNgQTEPvFCAcTncT" name="Page-1">
    <mxGraphModel dx="892" dy="591" grid="1" gridSize="10" guides="1" tooltips="1" connect="1" arrows="1" fold="1" page="1" pageScale="1" pageWidth="827" pageHeight="1169" math="0" shadow="0">
      <root>
        <mxCell id="0" />
        <mxCell id="1" parent="0" />
        <mxCell id="EX10KSYccdlQ2QibmcdO-6" style="edgeStyle=orthogonalEdgeStyle;rounded=0;orthogonalLoop=1;jettySize=auto;html=1;entryX=0.5;entryY=0;entryDx=0;entryDy=0;" edge="1" parent="1" source="EX10KSYccdlQ2QibmcdO-2" target="EX10KSYccdlQ2QibmcdO-4">
          <mxGeometry relative="1" as="geometry">
            <mxPoint x="410" y="420" as="targetPoint" />
            <Array as="points">
              <mxPoint x="510" y="390" />
              <mxPoint x="420" y="390" />
            </Array>
          </mxGeometry>
        </mxCell>
        <mxCell id="EX10KSYccdlQ2QibmcdO-2" value="当前页面poskey" style="ellipse;whiteSpace=wrap;html=1;" vertex="1" parent="1">
          <mxGeometry x="450" y="290" width="120" height="50" as="geometry" />
        </mxCell>
        <mxCell id="EX10KSYccdlQ2QibmcdO-5" style="edgeStyle=orthogonalEdgeStyle;rounded=0;orthogonalLoop=1;jettySize=auto;html=1;entryX=0.5;entryY=0;entryDx=0;entryDy=0;" edge="1" parent="1" source="EX10KSYccdlQ2QibmcdO-3" target="EX10KSYccdlQ2QibmcdO-4">
          <mxGeometry relative="1" as="geometry" />
        </mxCell>
        <mxCell id="EX10KSYccdlQ2QibmcdO-3" value="全局公共poskey" style="ellipse;whiteSpace=wrap;html=1;" vertex="1" parent="1">
          <mxGeometry x="280" y="290" width="120" height="50" as="geometry" />
        </mxCell>
        <mxCell id="EX10KSYccdlQ2QibmcdO-13" value="" style="edgeStyle=orthogonalEdgeStyle;rounded=0;orthogonalLoop=1;jettySize=auto;html=1;" edge="1" parent="1" source="EX10KSYccdlQ2QibmcdO-4" target="EX10KSYccdlQ2QibmcdO-12">
          <mxGeometry relative="1" as="geometry" />
        </mxCell>
        <mxCell id="EX10KSYccdlQ2QibmcdO-4" value="请求的poskey" style="rounded=1;whiteSpace=wrap;html=1;" vertex="1" parent="1">
          <mxGeometry x="360" y="440" width="120" height="60" as="geometry" />
        </mxCell>
        <mxCell id="EX10KSYccdlQ2QibmcdO-7" value="页面初始化" style="ellipse;whiteSpace=wrap;html=1;aspect=fixed;" vertex="1" parent="1">
          <mxGeometry x="385" y="160" width="70" height="70" as="geometry" />
        </mxCell>
        <mxCell id="EX10KSYccdlQ2QibmcdO-9" value="" style="endArrow=classic;startArrow=classic;html=1;rounded=0;entryX=0.5;entryY=0;entryDx=0;entryDy=0;exitX=0.5;exitY=0;exitDx=0;exitDy=0;" edge="1" parent="1" source="EX10KSYccdlQ2QibmcdO-3" target="EX10KSYccdlQ2QibmcdO-2">
          <mxGeometry width="50" height="50" relative="1" as="geometry">
            <mxPoint x="390" y="360" as="sourcePoint" />
            <mxPoint x="440" y="310" as="targetPoint" />
            <Array as="points">
              <mxPoint x="420" y="230" />
            </Array>
          </mxGeometry>
        </mxCell>
        <mxCell id="EX10KSYccdlQ2QibmcdO-12" value="abt数据（内存）" style="rounded=0;whiteSpace=wrap;html=1;" vertex="1" parent="1">
          <mxGeometry x="360" y="555" width="120" height="60" as="geometry" />
        </mxCell>
        <mxCell id="EX10KSYccdlQ2QibmcdO-16" value="" style="edgeStyle=orthogonalEdgeStyle;rounded=0;orthogonalLoop=1;jettySize=auto;html=1;" edge="1" parent="1" source="EX10KSYccdlQ2QibmcdO-14" target="EX10KSYccdlQ2QibmcdO-15">
          <mxGeometry relative="1" as="geometry" />
        </mxCell>
        <mxCell id="EX10KSYccdlQ2QibmcdO-14" value="Actor" style="shape=umlActor;verticalLabelPosition=bottom;verticalAlign=top;html=1;outlineConnect=0;" vertex="1" parent="1">
          <mxGeometry x="110" y="555" width="30" height="60" as="geometry" />
        </mxCell>
        <mxCell id="EX10KSYccdlQ2QibmcdO-17" value="" style="edgeStyle=orthogonalEdgeStyle;rounded=0;orthogonalLoop=1;jettySize=auto;html=1;" edge="1" parent="1" source="EX10KSYccdlQ2QibmcdO-15" target="EX10KSYccdlQ2QibmcdO-12">
          <mxGeometry relative="1" as="geometry" />
        </mxCell>
        <mxCell id="EX10KSYccdlQ2QibmcdO-15" value="&lt;br&gt;&lt;br&gt;abt方法获取" style="rhombus;whiteSpace=wrap;html=1;verticalAlign=top;" vertex="1" parent="1">
          <mxGeometry x="210" y="542.5" width="90" height="85" as="geometry" />
        </mxCell>
      </root>
    </mxGraphModel>
  </diagram>
</mxfile>
